# xmcd CD Database Entry
#
# Track frame offsets:
# 182
# 16955
# 32100
# 49815
# 73597
# 84967
# 105742
# 113862
# 132040
# 146017
# 162435
# 171397
# 188927
# 204327
# 214372
#
# Disc length: 3016 seconds
#
# Revision: 1
# Processed by: cddbd v1.4PL0 Copyright (c) Steve Scherf et al.
# Submitted via: tcd 2.0b
#
DISCID=d80bc60f
DTITLE=Les Ours du Scorff - Le grand bal
DYEAR=1900
DGENRE=
TTITLE0=L'âne l'âne l'animal
TTITLE1=Mais ja mais ja
TTITLE2=Julie Verluisant
TTITLE3=Inna Inna
TTITLE4=Le petit ravailleur
TTITLE5=L'ours Oné
TTITLE6=La danse des Ours
TTITLE7=Le Gnac-Gnac
TTITLE8=Monsieur Sava
TTITLE9=L'oiseau s'envole
TTITLE10=Madame Poix
TTITLE11=Tourne tourne
TTITLE12=Le chapeau
TTITLE13=Venez avec nous
TTITLE14=Air de repos
EXTD=
EXTT0=
EXTT1=
EXTT2=
EXTT3=
EXTT4=
EXTT5=
EXTT6=
EXTT7=
EXTT8=
EXTT9=
EXTT10=
EXTT11=
EXTT12=
EXTT13=
EXTT14=
PLAYORDER=
